<?xml version="1.0" encoding="UTF-8"?>
<svg version="1.1" viewBox="0 0 1760 1260" width="440" height="315" xmlns="http://www.w3.org/2000/svg">
<path transform="translate(735,85)" d="m0 0h11l10 5 14 12 10 9 5 4 7 8 12 13 12 16 13 21 8 16 9 21 7 23 5 24 2 16 2 23v12l-1 9-1 355v217l1 76 1 3v7l-4 9-7 8-5 3-10 1-31-8-43-12-42-11-42-9-36-6-48-6-39-4-50-3-31-1h-45l-50 2-45 3-55 7-68 11h-14l-9-6-6-7-2-5v-11l1-4 1-13v-613h-27l-14-1v17l2 75 1 68 1 166 2 137 1 125v106l36-10 35-8 45-8 40-7 60-7 65-4 22-1h57l45 3 74 7 40 6 69 13 60 15 48 14 19 7 21 6 10-1 29-10 22-8 42-12 59-14 41-8 50-8 59-6 48-3 32-1h23l29 1 64 4 55 6 47 8 54 10 57 14h3v-22l-3-267-1-47-2-243-1-65-1-47h-23l-1 14-1 263-6 12-7 6-9 3-8 1-78 4-57 2-11 1h-15l-8-3-8-7-4-8-1-8 2-8 4-6 7-6 10-4 5-1 40-1 94-4 2-1v-277l3-10 6-7 7-4h83l9 2 6 4 6 9 2 9 1 30 1 80 1 161 1 94 2 101 1 166 1 79v42l-4 9-8 7-7 3h-12l-24-7-60-15-31-6-70-12-35-4-37-3-59-3h-64l-64 5-36 4-54 9-45 9-56 14-50 15-40 14-16 4-21-6-34-12-20-6-43-12-50-12-41-8-43-7-39-5-36-3-50-3h-62l-69 4-47 4-72 12-38 7-58 14-29 8-3 1h-11l-8-4-7-8-3-7-1-42-1-163-1-67-2-90-2-215-2-132v-45l4-10 9-10 7-3h100l8 4 8 9 3 7 1 7v261l1 11 71 3 38 2 21 3 8 4 5 6 4 10v8l-4 8-7 7-8 4h-22l-60-3-46-2-1 26v279l47-8 42-5 40-3 37-2 37-1h41l39 1 55 4 43 5 48 7 44 8 40 9 35 9 32 9-1-6v-208l1-250v-158l-1-40-6-31-8-24-12-25-10-16-10-13-11-13-9-9-10-8-10-9-6-9-3-7v-7l5-10 8-7z" fill="#16354F"/>
<path transform="translate(735,85)" d="m0 0h11l10 5 14 12 10 9 5 4 7 8 12 13 12 16 13 21 8 16 9 21 7 23 5 24 2 16 2 23v12l-1 9-1 355v217l1 76 1 3v7l-4 9-7 8-5 3-10 1-31-8-43-12-42-11-42-9-36-6-48-6-39-4-50-3-31-1h-45l-50 2-45 3-55 7-68 11h-14l-9-6-6-7-2-5v-11l1-4 1-13v-613l1-2 2-42 1-4-69 1-9 2-8 7-2 1 2-4 7-6 5-2h100l8 4 8 9 3 7 1 7v261l1 11 71 3 38 2 21 3 8 4 5 6 4 10v8l-4 8-7 7-8 4h-22l-60-3-46-2-1 26v279l47-8 42-5 40-3 37-2 37-1h41l39 1 55 4 43 5 48 7 44 8 40 9 35 9 32 9-1-6v-208l1-250v-158l-1-40-6-31-8-24-12-25-10-16-10-13-11-13-9-9-10-8-10-9-6-9-3-7v-7l5-10 8-7z" fill="#B16E3C"/>
<path transform="translate(1024,85)" d="m0 0h11l9 4 6 5 5 10v10l-4 8-6 7-11 9-13 11-12 12-10 13-11 16-8 14-10 21-8 25-5 23-2 30-1 20-1 153-1 464 29-9 42-11 56-12 38-7 47-6 40-4 59-4h67l57 2 36 2 46 5 35 5 29 5 4 1-1-103v-151l2-9 4-6 5-5 6-4 4-1h8l8 3 5 4 5 8 2 8 1 123v165l-2 9-6 9-12 6-10-1-13-4-55-9-66-8-38-3-10-1h-84l-63 3-27 2-71 8-41 7-51 11-55 14-39 11-8 2h-15l-8-5-4-5-4-10-1-16 1-517v-146l2-9 3-25 5-25 11-33 9-20 13-22 12-17 9-11 9-10 4-5h2l2-4 8-8 11-9 10-8z" fill="#B06C3A"/>
<path transform="translate(351,268)" d="m0 0 12 1 9 4 6 8 5 16 26 100 18 70 9 34 9 36 17 65 10 38 7 28 1 9 3-3 7-28 9-32 11-42 14-51 11-40 5-10 9-8 5-2h12l9 3 6 5 7 14 22 69 18 57 11 35 7 23 4 12 2-3 22-84 20-76 44-160 5-16 6-9 6-4 7-2 9 1 10 5 6 8 2 5v8l-5 21-17 63-12 44-11 42-17 63-31 113-17 65-5 12-7 8-9 4h-12l-10-5-6-8-6-16-19-60-18-56-12-40-6-21-5-13-3-2-4 20-10 38-31 112-11 42-4 8-8 7-5 2h-16l-7-4-4-5-5-12-14-56-14-53-16-62-15-59-14-52-11-42-7-27-17-64-12-44-4-17v-10l4-9 7-8z" fill="#14344E"/>
<path transform="translate(1128,309)" d="m0 0h37l50 4 21 2 26 5 25 7 20 8 17 9 13 10 15 13 10 14 6 12 5 16 6 30 3 29v10l-2 22-6 24-11 23-10 14-9 12-2 3h-2l-2 4-16 15-11 9-17 12-11 4-29 5-27 3h-5l4 6 11 13 8 10 13 16 11 14 14 17 8 10 13 16 11 14 26 32 14 17 12 16 4 8 1 6-4 10-7 8-8 4h-13l-8-4-9-9-11-14-26-32-11-14-13-16-11-14-14-17-11-14-11-13-11-14-11-13-11-14-11-13-11-14-5-8-2-6v-10l4-9 6-7 12-5 13-2 37-4 41-5 10-6 16-12 13-13 10-14 8-15 5-14 3-13v-32l-3-18-6-25-5-9-9-11-13-9-15-7-22-7-31-6-18-2-16-1h-104l-1 39-1 286-1 135-3 10-8 7-6 2h-16l-8-4-5-6-2-7v-300l1-190 3-8 7-7 13-4 24-2z" fill="#16364F"/>
<path transform="translate(1465,182)" d="m0 0h13l9 6 6 9 2 10-3 10-7 8-11 4-31 6-313 58-59 10-43 8-22 4h-12l-7-4-7-9-3-8 1-9 5-10 6-5 11-4 35-7 71-13 31-6 126-23 153-27z" fill="#11314C"/>
<path transform="translate(304,182)" d="m0 0 13 1 41 7 201 37 208 39 12 4 7 7 6 12-1 8-7 11-7 6-2 1h-17l-57-11-60-11-87-16-187-35-58-11-13-4-7-6-5-10v-9l5-10 9-8z" fill="#16354F"/>
<path transform="translate(1543,251)" d="m0 0h83v1l-49 1v47l-1 14-1 263-6 12-7 6-9 3-8 1-78 4-57 2-11 1h-15l-8-3-8-7-4-8-1-8 2-8 4-6 7-6 10-4 5-1 40-1 94-4 2-1v-277l3-10 6-7z" fill="#B06B39"/>
<path transform="translate(260,1104)" d="m0 0h12l6 4 3 9 4 25 3 23 1 4h2l5-26 4-15 4-3 4-1h12l6 4 4 7 8 34 3 1 2-30 4-30 3-5 2-1h13l5 2 3 4 1 3-1 16-6 36-5 20-5 8-3 2-5 1h-19l-5-3-4-9-7-23-2-1-1 11-4 18-5 6-11 2h-8l-9-2-6-7-6-19-7-32-3-19v-8l5-5z" fill="#1F3C54"/>
<path transform="translate(580,376)" d="m0 0h28l11 3 6 4 6 9 2 6v8l-4 10-8 7-7 2-10 1-27 1h-59l-10-4-7-6-5-9-1-8 3-9 6-8 8-4 8-1z" fill="#B06A38"/>
<path transform="translate(1228,1101)" d="m0 0h9l15 2 15 6 9 7 6 10 4 12 1 5v15l-4 15-7 10-9 8-9 4-16 3h-20l-12-3-7-4-3-6v-74l5-5 9-3zm1 22-1 1v52l1 1h11l10-4 6-7 3-8v-15l-4-11-8-7-7-2z" fill="#223F57"/>
<path transform="translate(768,1102)" d="m0 0h22l14 3 14 7 7 8 5 10 2 8v25l-3 10-7 11-9 7-8 4-17 3h-19l-12-3-6-4-3-3-1-4v-73l5-5 10-3zm9 21-2 1v51l2 2 13-1 8-4 5-6 2-6v-19l-3-9-8-7-7-2z" fill="#1B3851"/>
<path transform="translate(562,1101)" d="m0 0h12l13 2 14 7 6 7 4 9 1 4v10l-4 9-6 7-5 5 10 14 6 9v5l-8 7-10 1-6-3-7-9-9-14-6-5h-2l-1 20-2 9-1 1h-18l-5-3-2-2-1-4v-76l5-5 8-3zm2 22-1 1v13l1 8 1 1h10l6-3 3-4v-8l-3-5-6-3z" fill="#1C3952"/>
<path transform="translate(448,1100)" d="m0 0 13 1 12 4 10 6 6 5 6 10 4 11 1 7v13l-3 13-6 11-5 6-11 7-15 4h-19l-12-4-8-6-8-8-6-12-3-12v-12l4-15 5-10 9-9 16-8zm-2 23-8 5-4 8-2 7v14l4 11 5 6 7 3h10l6-3 6-7 2-7v-22l-3-7-4-5-7-3z" fill="#203D55"/>
<path transform="translate(893,1102)" d="m0 0h17l16 4 8 5 6 7 3 7 1 5v10l-3 8-9 10-2 4 9 12 7 11-1 6h-2v2l-8 4h-9l-8-7-7-10-7-11-5-3-2 2-2 27-2 1h-19l-5-5-2-6v-72l4-5 10-4zm5 21-2 2v17l2 4h11l5-3 2-2v-10l-3-5-3-3z" fill="#1B3850"/>
<path transform="translate(1451,1101)" d="m0 0h14l12 2 10 4 8 6 5 8 3 10v8l-4 10-10 10h-2l3 6 12 15 2 4v5l-5 6-5 2h-9l-5-3-6-7-11-17-5-4-3-1-1 28-3 3h-17l-5-3-2-5v-77l5-5 7-3zm4 22-2 2v13l1 7 1 1h13l6-4 2-8-3-7-4-3-3-1z" fill="#1C3A53"/>
<path transform="translate(1210,450)" d="m0 0h29l10 4 6 5 5 9 1 8-2 8-4 6-6 5-11 3-12 1-31 1h-37l-8-4-5-5-3-4-2-5v-10l6-12 9-6 5-2 7-1z" fill="#B16C3A"/>
<path transform="translate(1120,1103)" d="m0 0h9l9 2 6 5 6 16 15 52 3 14-3 3-5 2h-15l-5-8-4-12h-25l-3 9-2 7-5 4h-14l-6-4-1-2v-8l6-22 12-36 5-13 3-5 6-3zm4 24-3 4-6 21 1 5h16l-1-10-4-18z" fill="#1D3A53"/>
<path transform="translate(1334,1104)" d="m0 0h53l2 2 1 10-2 6-3 2h-37l1 16 17-1h13l5 2 2 9-2 6-2 3-5 1h-27l-1 15h29l9 1 3 3 1 9-3 6-2 2h-54l-6-4-3-7v-71l3-5 5-4z" fill="#1F3C55"/>
<path transform="translate(1e3 1104)" d="m0 0h44l2 1 1 3v13l-3 3-23 1h-14v15l27-1 8 2 1 2v10l-2 5-2 1-13 1h-19l1 14 5 1 32 1 3 4v10l-5 5-2 1h-51l-6-4-3-6-1-6v-27l1-39 3-5 5-4z" fill="#1E3B54"/>
<path transform="translate(650,1103)" d="m0 0h17l6 2 2 3 1 9 1 57 33 1 3 4v9l-3 6-5 2h-47l-5-3-4-6-1-3v-79z" fill="#27435B"/>
<path transform="translate(1024,85)" d="m0 0h11l3 2h-11l-10 4-11 9-14 12-18 18-11 14-9 12-10 16-9 16-9 20-9 27-5 23-1 6-2 23-1 10v122l-1 129-1 227v198l1 8-2-3-1-3-1-16 1-517v-146l2-9 3-25 5-25 11-33 9-20 13-22 12-17 9-11 9-10 4-5h2l2-4 8-8 11-9 10-8z" fill="#FEFEFE"/>
<path transform="translate(850,226)" d="m0 0 2 3 5 22 3 22 2 23v12l-1 9-1 355v276h-1l-2-38v-533l1-66 1-10v-11l-1-4-1-19-1-2-3-22-3-12z" fill="#D39F7C"/>
<path transform="translate(1171,95)" d="m0 0h11l10 4 6 8 2 5 1 8-2 9-5 7-5 3-4 1h-17l-8-4-4-6-2-9 1-12 5-8 8-5z" fill="#BE7440"/>
<path transform="translate(586,95)" d="m0 0 11 1 6 3 7 8 2 5 1 8-2 9-6 8-7 3h-18l-6-3-5-6-2-5v-14l3-7 5-6 6-3z" fill="#C17947"/>
<path transform="translate(804,238)" d="m0 0 2 3 5 21 3 21v17l1 17v89l-1 533-2 1-4-2h4l-1-6v-208l1-250v-158l-1-40-6-31z" fill="#FEFEFE"/>
<path transform="translate(1557,628)" d="m0 0h8l8 3 2 3-5-2-3-1h-12l-8 5h-2l-5 10-1 6v256h-8l-45-7-50-6-41-3-42-2-33-1h-35l-29 1-57 4-63 7-33 5-51 10-40 9-4-1 28-7 49-10 32-6 47-6 40-4 59-4h67l57 2 36 2 46 5 35 5 29 5 4 1-1-103v-151l2-9 4-6 5-5 6-4z" fill="#FEFEFE"/>
<path transform="translate(735,85)" d="m0 0h11l5 2-4 2 3 3 4 2-2 1 2 1-1 3v-2h-2l-1 3-6 1-2 1 1 5-5 3h-3l1 3-1 2h2l1 4 1 7h2l8 10 3 3v2l4 2 6 7v2l3 1 2 7-4-1-4-4v-2h-2v-2h-2v-2h-2v-2h-2l-4-4v-2h-4l2 3-4-2-14-12-7-9-4-9v-7l5-10 8-7z" fill="#C07745"/>
<path transform="translate(580,376)" d="m0 0h28l11 3 6 4-1 2-6-4-8-2h-37l-6 1-23 1h-19v2l-6 1-3 14v7l-1 7 1 6-2 3h-5l1 2-5-2-6-7-4-10 1-8 4-8 4-5 8-4 8-1z" fill="#CC9168"/>
<path transform="translate(1024,85)" d="m0 0h11l3 2h-11l-10 4-11 9-14 12-18 18-11 14-9 12-10 16-9 16-9 20-9 27-5 23-1 6-2 23-1 10v122l-1 129h-1l-1-251 1-3 2-27 5-26 10-32 7-17 12-22 12-18 12-16 12-13 3-4h2l2-4 8-8 11-9 10-8z" fill="#BF7440"/>
<path transform="translate(1543,251)" d="m0 0h83v1l-61 1h-17l-10 4-7 8-1 9-1 277-3 1-55 3-77 3-14 1 3-2 8-2 40-1 94-4 2-1v-277l3-10 6-7z" fill="#CA8E64"/>
<path transform="translate(1451,184)" d="m0 0h7v1l-453 82h-5l4-2 42-8 70-13 54-10 60-11 56-10 147-26z" fill="#FEFEFE"/>
<path transform="translate(1171,95)" d="m0 0h11l10 4 6 8 2 5 1 8-2 9-5 7-5 3h-6l1-4 3-4h2v-2h3l2-7v-8l-4-2-5-6-3-6-12-2-7 4-5 6-1 3v15l3 6 1 3 4 2-2 1-5-5-3-6-1-11 2-9 4-6 8-5z" fill="#BB7F53"/>
<path transform="translate(1421,556)" d="m0 0h17v1l-42 3-11 2-3 3h-2l-1-3-5 2-1 5h8l-2 13-6 9-4 1-2 2-3-6-1-8 2-8 4-6 7-6 9-2 9-1z" fill="#C58253"/>
<path transform="translate(857,735)" d="m0 0h2l1 154v59h-1l-2-38z" fill="#C78659"/>
<path transform="translate(586,95)" d="m0 0 11 1 6 3 7 8 2 5 1 8-2 9-6 8-4 2h-7l2-5 7-6 2-3v-10l-3-2v-2l-7-7v-3h-2v-2h-7l-4-1-8 5-3 2 2-4 8-5z" fill="#C18B63"/>
<path transform="translate(1024,85)" d="m0 0h11l3 2h-11l-10 4-11 9-14 12-18 18-11 14-9 12-10 16-9 16-9 20-9 27-5 23-3 19h-1v-10l5-26 10-32 7-17 12-22 12-18 12-16 12-13 3-4h2l2-4 8-8 11-9 10-8z" fill="#FEFEFE"/>
<path transform="translate(1527,549)" d="m0 0 1 2-2 1-55 3-77 3-14 1 3-2 8-2 40-1 94-4z" fill="#FEFEFE"/>
<path transform="translate(524,420)" d="m0 0 7 2 2 1 12 1h39l20 1v1l-27 1h-59l-6-2 4-1 5-1v-2z" fill="#D8AB8D"/>
<path transform="translate(1027,86)" d="m0 0 14 1 3 3-8-2v4l2 1 1 9-4-1v-3l-8 3-1-3-5-1 1-5-3-3z" fill="#C17947"/>
<path transform="translate(870,1109)" d="m0 0 1 2-1 6v64l2 10 5 5-5-1-4-6-1-4v-72z" fill="#FEFEFE"/>
<path transform="translate(542,1105)" d="m0 0 3 1-6 4-1 1v78l4 6-4-2-2-2-1-4v-76l5-5z" fill="#FEFEFE"/>
<path transform="translate(808,248)" d="m0 0 2 3 3 16 3 15v95h-1l-1-60-1-20v-14l-4-26z" fill="#BF7440"/>
<path transform="translate(1210,450)" d="m0 0h29l4 2h-31l-37 1-13 1-10 4-7 8-2 5v12l3 6-1 2-3-4-2-5v-10l6-12 9-6 5-2 7-1z" fill="#FEFEFE"/>
<path transform="translate(850,226)" d="m0 0 2 3 5 22 3 22 2 23v12l-1 9-3-4 1-12v-11l-1-4-1-19-1-2-3-22-3-12z" fill="#D5A483"/>
<path transform="translate(1543,251)" d="m0 0h83v1l-61 1h-17l-10 4-7 8-2 8-1 22h-1v-23l3-10 6-7z" fill="#FEFEFE"/>
<path transform="translate(754,1105)" d="m0 0 3 1-6 4-1 1-1 29v37l1 9 2 5-4-3-1-4v-73l5-5z" fill="#FEFEFE"/>
<path transform="translate(1421,556)" d="m0 0h17v1l-42 3-11 2-3 3h-2l-1-3h-3v-2l9-2 9-1z" fill="#C07744"/>
<path transform="translate(720,119)" d="m0 0 5 2 6 7 6 5v2h2v2l3 1 3 6-4-2-14-12-7-9z" fill="#D2AA8D"/>
<path transform="translate(1171,95)" d="m0 0h11l3 2h-11l-8 3-6 5-3 6v15l3 6 1 3 4 2-2 1-5-5-3-6-1-11 2-9 4-6 8-5z" fill="#FEFEFE"/>
<path transform="translate(1175,452)" d="m0 0h23v1l-19 1-8 1-6 4-3-1-1 2-1-2-6-1 4-3 4-1z" fill="#BE733F"/>
<path transform="translate(1430,1107)" d="m0 0h2l-2 4-1 1-1 76h-1v-77z" fill="#F5F5F5"/>
<path transform="translate(1045,91)" d="m0 0 4 2 4 6 2 5v10l-2 5-4-4h-2l1-6 5-1-3-10z" fill="#DCB499"/>
<path transform="translate(582,97)" d="m0 0h2l-2 6-5 2-1 4h-4l-2 7h-1v-7l4-6 5-4z" fill="#B06936"/>
<path transform="translate(1167,98)" d="m0 0 4 1-5 6h-2l-1 4-3-1-3 12h-1v-9l4-7z" fill="#B06936"/>
<path transform="translate(570,127)" d="m0 0 3 3 1 2h5l5 4v2l6 1v1h-10l-3-1-7-9z" fill="#B57444"/>
<path transform="translate(1154,467)" d="m0 0 1 2h3l-1 7-3 4h-3v-2h-2v-6l3 2 1-2-2-1z" fill="#BE733F"/>
<path transform="translate(512,379)" d="m0 0h7v1l-8 2-6 4-5 6-2 6v12l-2-2-1-8 3-9 6-8z" fill="#FEFEFE"/>
<path transform="translate(953,305)" d="m0 0h1v18l-2 12h-1v-21z" fill="#D19C77"/>
<path transform="translate(909,271)" d="m0 0h1v9l-3 28-2-3v-8l1-3 1-17h2z" fill="#BF7440"/>
<path transform="translate(726,90)" d="m0 0 2 1-6 7-2 4-1 9 1 8-3-4-1-3v-7l5-10z" fill="#FEFEFE"/>
<path transform="translate(860,294)" d="m0 0 2 2v12l-1 9-3-4z" fill="#D7AA8A"/>
<path transform="translate(860,965)" d="m0 0 2 3v7l-2 6h-1l1-7h-2l1-8z" fill="#D6A786"/>
<path transform="translate(1160,131)" d="m0 0 8 5h3l1 4-7-1-5-6z" fill="#BC7F53"/>
<path transform="translate(909,271)" d="m0 0h1v9l-1 7h-2v-10h2z" fill="#D4A381"/>
<path transform="translate(1158,107)" d="m0 0h2l-2 9-2 4v-9z" fill="#B36B38"/>
</svg>
